<svg width="147" height="77" viewBox="0 0 147 77" fill="none" xmlns="http://www.w3.org/2000/svg">
<path d="M80.3657 72.1684C76.7039 75.2813 71.2778 75.4534 68.1187 71.5118C67.491 72.5008 66.7828 73.4002 65.7222 73.9653C64.4886 74.6229 63.1418 74.7814 61.7878 74.823C59.6784 74.8883 57.5662 74.9127 55.4559 74.8846C54.4859 74.8719 53.5177 74.6917 52.5477 74.5912C52.4625 74.5821 52.3638 74.583 52.2895 74.6174C51.1637 75.1382 49.9546 75.1681 48.7518 75.198C47.655 75.2252 46.5546 75.2424 45.4587 75.1962C44.5348 75.1573 43.755 74.7497 43.1428 74.0369C42.7895 73.6248 42.4191 73.2281 42.0586 72.8278C41.5324 73.3848 41.0569 73.9889 40.4836 74.4798C38.3669 76.2903 35.9414 77.0076 33.1826 76.3827C32.4119 76.2079 31.767 75.7885 31.2399 75.2098C29.6875 73.5043 28.1487 71.7844 26.6035 70.0726C25.6317 68.9957 25.2015 67.6634 24.8854 66.2967C24.3981 64.1891 23.9661 62.0688 23.5105 59.954C23.4988 59.8987 23.4761 59.8462 23.4426 59.7447C23.1827 59.9159 22.9535 60.0744 22.7171 60.2211C19.1568 62.4256 14.9579 62.0661 11.8033 59.1569C10.4456 57.9043 9.25642 56.4651 8.02103 55.0848C7.10807 54.0641 6.1616 53.0579 5.37363 51.9438C3.9263 49.8969 3.54862 47.5502 3.64463 45.0785C3.7678 41.8913 4.62914 38.8889 5.76943 35.9471C5.86996 35.6881 5.80475 35.5432 5.64172 35.3566C5.14177 34.7851 4.4969 34.3015 4.38006 33.4791C4.3384 33.1865 4.31576 32.8731 4.37373 32.5878C4.65269 31.2121 5.15354 30.2158 6.24402 28.7793C5.55025 28.0068 4.82839 27.245 4.15364 26.4417C3.33306 25.4635 2.4518 24.5152 1.77524 23.4411C0.460142 21.3534 0.465576 19.0556 1.00447 16.7225C1.38669 15.0686 2.06506 13.5661 3.20354 12.2881C4.3692 10.9794 5.83192 10.1579 7.48304 9.63437C9.82159 8.8935 12.2272 8.62813 14.6635 8.73772C17.5826 8.86905 20.4963 9.11721 23.4145 9.24401C25.0946 9.31647 26.8001 9.45685 28.4367 8.89803C29.0562 8.68609 29.6603 8.40442 30.2318 8.08289C30.8115 7.75774 31.2172 7.24601 31.3966 6.58846C31.873 4.835 33.0812 4.49808 34.582 4.67922C36.3481 4.89206 37.8027 5.69996 38.9855 7.01687C39.6693 7.77857 40.3586 8.53574 41.0723 9.32553C41.2743 9.17155 41.4608 9.02845 41.6492 8.88535C44.1092 7.0223 46.8996 5.93544 49.912 5.37662C52.0396 4.98173 54.1879 4.84044 56.3489 4.92467C59.5606 5.05056 62.6772 5.7072 65.6877 6.79768C68.5081 7.81842 71.2887 8.95237 74.0864 10.0356C74.1417 10.0573 74.1987 10.0736 74.2304 10.0836C74.9632 9.01668 75.6479 7.93616 76.415 6.91814C78.1476 4.61582 80.1909 2.64771 82.8347 1.41231C85.329 0.247569 87.9112 -0.150039 90.5903 0.755673C92.1808 1.29367 93.3038 2.43758 94.3762 3.6612C95.6379 5.10128 96.9312 6.51419 98.2146 7.93435C99.5877 9.45323 100.301 11.252 100.5 13.2717C100.73 15.6175 100.512 17.9017 99.5161 20.0691C99.3096 20.5174 99.0551 20.944 98.7979 21.4268C100.208 22.0254 100.979 23.3659 102.079 24.4373C102.289 23.8486 102.508 23.2998 102.682 22.7382C103.192 21.0907 104.335 20.1434 105.986 19.8282C108.051 19.4342 110.029 19.7439 111.743 20.9929C112.486 21.5336 113.047 22.3234 113.69 23.0009C113.772 23.0878 113.851 23.1784 113.957 23.297C114.008 23.1648 114.06 23.0643 114.089 22.9574C114.551 21.2039 115.74 20.2421 117.472 19.9296C119.51 19.5619 121.458 19.8707 123.151 21.088C123.908 21.6323 124.494 22.4221 125.135 23.1204C126.151 24.2281 127.149 25.353 128.207 26.5304C128.376 25.6021 128.233 24.7634 128.11 23.9265C128.098 23.8369 127.995 23.7571 127.926 23.6793C127.361 23.0507 126.823 22.3959 126.224 21.8035C124.952 20.5473 125.233 18.9406 125.853 17.8564C126.607 16.5395 127.806 15.7769 129.24 15.4164C131.946 14.7344 134.598 14.8277 137.04 16.3294C137.758 16.7714 138.397 17.3791 138.978 17.9995C140.503 19.628 141.98 21.3018 143.47 22.9619C144.776 24.4165 145.475 26.1555 145.823 28.052C146.444 31.4258 145.991 34.6103 144.115 37.5367C142.84 39.5256 141.142 41.0907 139.197 42.3994C135.995 44.5541 132.441 45.9136 128.747 46.9334C127.518 47.2731 126.272 47.5602 125.023 47.8156C124.669 47.8881 124.567 48.0348 124.491 48.3454C124.022 50.2737 123.431 52.163 122.586 53.9636C121.509 56.2596 120.131 58.3418 117.98 59.7674C115.365 61.5 112.528 62.1286 109.485 61.0725C108.648 60.7818 107.893 60.2565 107.075 59.8263C106.355 60.9602 105.323 61.9248 104.027 62.6077C102.461 63.4337 100.83 63.1855 99.6275 61.8867C98.47 60.6369 97.3053 59.3897 96.2202 58.0773C95.7656 57.5276 95.2873 57.5765 94.6216 57.6399C95.6877 58.7113 96.4575 59.8281 96.4331 61.3506C96.4095 62.8676 95.6949 63.9726 94.5275 64.8611C95.3046 65.9679 95.7465 67.1526 95.7022 68.5057C95.6406 70.3923 94.9205 71.9076 93.3129 72.9627C91.9915 73.8295 90.5179 74.2687 88.98 74.5223C87.2238 74.8122 85.4667 74.8067 83.7359 74.3666C82.5793 74.0722 81.5413 73.5442 80.7787 72.5769C80.6764 72.4474 80.5532 72.3341 80.4382 72.2155C80.4183 72.1947 80.3866 72.1838 80.3612 72.1693L80.3657 72.1684ZM72.5177 51.3823C72.5223 51.3913 72.5268 51.4013 72.5313 51.4104C72.5395 51.4058 72.5467 51.4013 72.5549 51.3968C72.5404 51.3959 72.5259 51.395 72.5114 51.3941C72.5132 51.3569 72.5313 51.3053 72.5141 51.2854C71.9743 50.6804 71.43 50.079 70.8965 49.4866C68.0897 51.0408 65.292 51.5055 62.4598 49.6623C62.1129 50.1288 61.7832 50.5726 61.439 51.0345C61.7298 51.3587 62.0151 51.6676 62.2895 51.9846C62.8329 52.6122 63.1472 53.3178 63.0358 54.1746C63.0213 54.2896 63.0702 54.4427 63.1445 54.5351C63.3401 54.7778 63.5648 54.997 63.7749 55.2225C63.8193 55.1972 63.8519 55.1881 63.87 55.1664C63.9488 55.0758 64.023 54.9816 64.1009 54.8892C65.4405 53.287 67.0853 52.1512 69.1159 51.6096C70.2335 51.3116 71.3729 51.2935 72.5177 51.3823ZM69.5234 35.8647C69.5896 35.8756 69.6548 35.8865 69.7209 35.8973C69.7209 36.9208 69.6665 37.9479 69.7336 38.9668C69.8314 40.4512 69.902 41.952 70.1882 43.4048C70.8159 46.5865 72.7106 48.7403 75.7774 49.8688C77.8379 50.6269 79.9745 50.8352 82.1301 50.7166C84.6697 50.5771 87.2011 50.2855 89.738 50.0844C91.0767 49.9784 92.4226 49.9549 93.735 50.3018C95.031 50.645 95.9983 51.3624 96.2012 52.7898C96.2664 53.249 96.2202 53.7227 96.2356 54.19C96.27 55.2388 97.1875 55.8085 98.1295 55.372C101.001 54.0406 102.236 50.2257 100.635 47.4886C99.3585 45.3077 97.3161 44.3648 94.8825 44.3965C93.0222 44.421 91.1645 44.7054 89.306 44.8829C86.7392 45.1274 84.1715 45.3647 81.5902 45.1302C80.7235 45.0514 79.8359 44.9771 79.105 44.4337C78.0851 43.6756 77.3017 42.7155 76.7619 41.5562C75.8136 39.5202 75.6805 37.3474 75.9078 35.1854C76.2148 32.2699 76.646 29.3626 77.1577 26.4761C77.6151 23.8912 78.3224 21.3597 79.3839 18.9406C79.5578 18.543 79.7707 18.466 80.1683 18.5348C82.6563 18.9632 85.1144 18.8509 87.5227 18.0493C89.3431 17.4434 91.0124 16.5785 92.0838 14.9201C93.8464 12.1921 93.9985 9.22771 93.0077 6.22346C92.3483 4.22365 90.891 2.95746 88.7617 2.62688C86.9158 2.34067 85.1723 2.7573 83.5285 3.60052C81.2361 4.77704 79.4573 6.5468 77.9864 8.61726C77.0155 9.98398 76.1732 11.4431 75.2421 12.9103C75.1633 12.8832 74.994 12.8306 74.8282 12.7663C71.5595 11.4947 68.3053 10.186 65.0193 8.96233C62.7052 8.101 60.3006 7.54852 57.8388 7.30035C55.6715 7.08207 53.5068 7.14367 51.3458 7.4498C48.6169 7.83563 46.0501 8.65801 43.7351 10.1814C39.9954 12.6413 38.5671 16.1437 39.6476 20.2303C39.9918 21.5318 40.5198 22.7482 41.7244 23.4954C43.0848 24.3395 44.6182 24.575 46.1823 24.5496C47.0726 24.5352 47.4068 24.1212 47.4277 23.2934C47.5056 20.176 48.8107 17.6771 51.344 15.8865C54.8835 13.384 58.8868 12.817 63.0956 13.2998C65.1181 13.5317 67.0735 14.076 69.0027 14.7091C70.6357 15.2453 72.2569 15.8168 73.8899 16.3738C72.9081 18.8237 71.9417 21.2356 70.969 23.662C70.1955 23.0407 69.2997 22.9157 68.394 22.865C65.4966 22.702 63.0068 23.7128 60.9128 25.6537C58.1404 28.2241 56.8299 31.4928 56.5609 35.2217C56.5319 35.6211 56.5084 36.0486 56.348 36.4036C56.1035 36.947 55.7693 37.4579 55.4242 37.9479C54.7594 38.8907 53.9388 39.6479 52.775 39.9314C51.8928 40.1469 51.3974 39.8707 51.2108 38.9867C50.988 37.9352 51.1094 36.8719 51.3811 35.8548C51.987 33.5832 52.6591 31.3289 53.3212 29.0719C53.563 28.2468 53.4787 27.8981 52.7333 27.4651C51.6139 26.8157 50.3993 26.631 49.1214 26.8166C48.2157 26.948 47.6242 27.4017 47.3525 28.3093C46.7113 30.4495 45.9948 32.567 45.3826 34.7154C44.966 36.1754 44.3818 37.5412 43.5213 38.7838C42.8412 39.7656 42.0224 40.5907 40.8042 40.8914C39.8333 41.1305 39.3279 40.771 39.1775 39.7729C39.0145 38.6914 39.1603 37.6236 39.432 36.5974C40.0226 34.3658 40.7 32.1576 41.354 29.9432C41.5179 29.388 41.469 28.9641 41.0207 28.6562C39.6059 27.6852 38.0635 27.4371 36.4369 28.0222C35.1299 28.4922 33.8583 28.4949 32.5849 27.9261C32.3313 27.8129 32.2968 27.6617 32.3086 27.4008C32.3349 26.8194 32.3684 26.2252 32.2815 25.6537C32.123 24.6103 31.392 23.835 30.5416 23.6829C29.3352 23.4664 28.0328 24.1919 27.5319 25.3575C27.041 26.5006 27.4069 27.9189 28.3996 28.6362C28.6858 28.8427 29.0173 28.9876 29.4239 29.2141C28.9077 30.4159 28.4494 31.6568 27.8525 32.826C27.1307 34.2399 26.0058 35.266 24.4597 35.7587C24.1309 35.8638 24.0612 36.1011 24.0648 36.3846C24.0739 37.3012 24.4316 38.0846 25.0511 38.7404C25.8174 39.5528 26.7756 39.6035 27.5464 38.7938C28.0572 38.2567 28.5508 37.6435 28.8461 36.9733C29.5217 35.4418 30.086 33.8595 30.6657 32.2872C30.9899 31.4095 31.2553 30.5101 31.5043 29.7484C32.7542 29.8716 33.9199 29.9857 35.0883 30.1008C34.1028 32.9954 33.1908 35.9616 32.7144 39.041C32.4327 40.8633 32.2769 42.6983 32.6791 44.5206C33.0613 46.2541 33.9498 47.5964 35.8273 47.9406C38.2356 48.3826 40.3477 47.7042 42.1637 46.0839C43.1409 45.2126 43.8583 44.1393 44.5022 42.9429C44.5819 43.2861 44.6381 43.5751 44.7169 43.8567C45.1661 45.4698 46.0809 46.6617 47.8153 46.9389C50.8567 47.4252 53.3058 46.3411 55.2087 43.9636C56.1035 42.846 56.7366 41.5761 57.2692 40.1823C57.3887 40.4051 57.4793 40.5735 57.5689 40.7429C58.3143 42.1368 59.3967 43.0851 61.0161 43.2825C62.1075 43.4156 63.1345 43.1485 64.1227 42.7019C65.6769 42 66.6985 40.7556 67.5354 39.3318C68.2111 38.1833 68.8623 37.0204 69.5253 35.8638L69.5234 35.8647ZM112.963 36.0685C112.742 37.1825 112.494 38.3581 112.283 39.5401C112.21 39.9486 112.046 40.137 111.629 40.2909C110.254 40.7999 108.862 41.2999 107.568 41.9774C104.757 43.4492 102.788 45.5703 102.528 48.9459C102.363 51.0816 103.403 52.8994 105.406 53.6466C107.3 54.353 109.145 54.0659 110.917 53.2318C113.047 52.2282 114.392 50.4512 115.444 48.4215C116.655 46.0848 117.353 43.5741 117.888 41.0128C117.936 40.7827 118.002 40.6614 118.266 40.6016C120.46 40.1025 122.674 39.6714 124.831 39.0429C128.234 38.0511 131.468 36.6518 134.286 34.4446C138.021 31.5209 139.798 27.8048 138.814 23.0072C138.458 21.2728 137.789 19.7023 136.345 18.5783C134.723 17.3148 132.835 17.1862 130.891 17.38C130.03 17.4661 129.212 17.716 128.501 18.2386C128.049 18.571 127.731 18.9868 127.632 19.5601C127.575 19.8916 127.671 20.0618 128.005 20.147C128.919 20.3807 129.499 20.9929 129.867 21.8407C130.273 22.779 130.417 23.7671 130.503 24.777C130.789 28.1272 129.776 31.0137 127.404 33.3912C125.157 35.6437 122.353 36.9135 119.347 37.7975C119.083 37.8754 118.812 37.9297 118.511 38.004C118.523 37.85 118.522 37.7604 118.54 37.6743C119.453 33.1865 120.576 28.7558 122.169 24.4555C122.5 23.5606 122.351 23.1259 121.509 22.6966C120.361 22.1124 119.136 21.924 117.87 22.154C117.202 22.2754 116.597 22.5607 116.37 23.2907C116.054 24.3069 115.771 25.334 115.435 26.343C114.986 27.6907 114.81 29.1271 114.104 30.3933C113.278 31.8769 112.25 33.1005 110.456 33.4148C109.683 33.5506 109.124 33.2662 109.034 32.4937C108.944 31.7138 108.896 30.8761 109.083 30.1261C109.572 28.1662 110.187 26.237 110.78 24.3042C111.035 23.4709 110.942 23.0887 110.186 22.6531C109.135 22.0472 107.986 21.847 106.793 21.9865C106.029 22.0761 105.26 22.289 104.981 23.115C104.306 25.1166 103.606 27.1155 103.063 29.1543C102.555 31.0617 101.918 32.8831 100.69 34.4473C100.008 35.3159 99.191 36.0133 98.0389 36.1772C97.2555 36.2886 96.7954 36.0558 96.7129 35.2715C96.6178 34.3703 96.6197 33.432 96.7582 32.5371C97.1495 30.0075 97.9882 27.5928 98.8106 25.1782C99.0153 24.5768 98.9491 24.1828 98.4274 23.8468C97.0245 22.9438 95.5065 22.6966 93.9061 23.2391C93.4488 23.394 93.1272 23.7354 92.9723 24.2163C92.8555 24.5777 92.7169 24.9328 92.5702 25.3403C92.0657 24.6746 91.4888 24.1846 90.7389 23.9301C88.4465 23.153 86.223 23.3677 84.1145 24.5107C81.8493 25.7379 80.3857 27.7006 79.3713 30.0165C78.1277 32.855 77.6087 35.8031 78.3288 38.8626C78.7789 40.7728 79.7535 42.3225 81.8964 42.6177C82.649 42.721 83.466 42.6186 84.2141 42.4447C86.2166 41.9792 87.6757 40.6958 88.8794 39.0927C89.2336 38.6208 89.5406 38.1127 89.8431 37.6598C89.9554 38.4306 90.0125 39.2313 90.1972 40.0011C90.6003 41.6776 91.5567 42.8813 93.3346 43.2173C94.7602 43.4872 96.1532 43.2916 97.4855 42.7192C99.5089 41.8506 100.834 40.2692 101.857 38.388C102.011 38.1055 102.157 37.8183 102.345 37.4597C102.382 37.6064 102.394 37.6598 102.409 37.7133C103.076 39.9585 104.551 40.5291 106.26 40.4875C108.059 40.4431 109.579 39.6705 110.844 38.4324C111.614 37.678 112.288 36.8275 112.963 36.0676V36.0685ZM33.688 6.91271C33.4299 7.78128 33.0749 8.56654 32.4327 9.19691C30.7916 10.8055 28.7356 11.3906 26.5275 11.5255C23.1591 11.7311 19.8207 11.1677 16.4632 11.0482C13.9888 10.9603 11.5307 10.9449 9.09792 11.5291C6.23677 12.2175 4.17628 13.7554 3.36023 16.6989C2.93183 18.2459 2.69725 19.8119 3.28053 21.3543C4.22791 23.8595 6.10726 25.2561 8.7293 25.6474C9.68392 25.7896 10.644 25.7216 11.5515 25.3729C10.9809 23.0127 11.1729 20.7547 12.1429 18.562C12.8548 16.9516 14.0024 15.767 15.6055 15.0442C16.0592 14.8395 16.551 14.7209 17.1769 14.5116C17.0528 15.2969 17.0102 15.9454 16.8427 16.5604C15.8518 20.2095 14.3465 23.6512 12.623 27.0096C12.1601 27.9117 11.5533 28.4161 10.5462 28.6933C8.3978 29.2847 7.15155 30.8199 6.59453 33.0344C7.6678 32.5607 8.70937 32.2328 9.87864 32.183C9.71924 32.5217 9.58338 32.8025 9.45477 33.086C7.6995 36.9525 6.08915 40.8597 5.91887 45.1917C5.85004 46.9515 6.04386 48.6534 6.94867 50.1976C8.24021 52.4021 10.1069 53.8911 12.6999 54.0596C15.4606 54.2389 17.6116 52.9863 19.1079 50.6641C19.8714 49.4794 20.1512 48.1598 20.0679 46.7423C19.971 46.7215 19.8995 46.6943 19.8279 46.6916C18.2963 46.6445 17.31 45.842 16.7358 44.4654C16.2467 43.2934 16.0927 42.0661 16.0828 40.8045C16.0629 38.1725 16.522 35.6347 17.4767 33.1503C17.8661 33.2083 18.2338 33.2717 18.6043 33.316C20.0779 33.4927 21.5406 33.5696 22.9698 33.0108C25.4786 32.0299 26.6796 29.4224 25.7042 27.0259C25.1019 25.5477 23.7524 24.6502 22.3566 24.8014C22.2942 26.8601 20.7309 27.6372 19.251 27.62C20.4637 23.4872 21.3432 19.3083 21.0896 14.9382C21.229 14.9745 21.3468 14.9953 21.4573 15.036C22.4961 15.4228 23.554 15.7679 24.5684 16.2126C26.6398 17.1219 28.6677 18.1309 30.8622 18.7377C32.2425 19.119 33.6246 19.3001 34.9696 18.7187C39.1458 16.9109 40.1684 12.4973 37.7094 9.0366C36.7493 7.68619 35.446 6.90274 33.6907 6.91361L33.688 6.91271ZM40.0905 52.058C40.0905 51.8016 40.105 51.5435 40.0878 51.2881C39.9592 49.3635 38.4847 48.4079 37.1098 48.734C35.7938 49.0465 34.9759 50.1397 35.3645 51.4394C35.571 52.1295 35.9541 52.7753 36.3101 53.4111C36.6316 53.9862 36.9893 54.5459 36.7348 55.2279C36.0066 57.1798 35.2603 59.1243 34.5023 61.0644C34.4316 61.2464 34.1952 61.5199 34.0874 61.4982C33.8574 61.4511 33.5811 61.2835 33.4661 61.0843C33.1844 60.5934 32.9508 60.0672 32.7542 59.5346C32.065 57.6643 31.3821 55.7913 30.7363 53.9056C30.5534 53.3721 30.4229 52.7943 30.4139 52.2346C30.3949 50.972 30.4537 49.7067 30.5072 48.4433C30.5325 47.8301 30.3967 47.572 29.817 47.5022C29.3107 47.4415 28.7945 47.4171 28.2854 47.4415C27.1424 47.4968 25.9994 47.5756 24.8591 47.677C23.765 47.7748 22.6737 47.9062 21.5823 48.0375C21.2743 48.0746 20.9736 48.1942 20.9129 48.5474C20.8523 48.8997 21.0497 49.1379 21.3404 49.3236C22.1329 49.8308 22.7017 50.5391 23.1636 51.3506C24.101 52.9999 24.6146 54.805 25.0439 56.6282C25.6906 59.3752 26.2367 62.1458 26.8834 64.8928C27.1288 65.9362 27.5102 66.9515 27.8797 67.9614C28.0708 68.4821 28.5164 68.8716 29.0544 68.9205C29.8677 68.9948 30.7209 69.0509 31.5116 68.8888C33.7514 68.4296 35.2368 66.966 36.0909 64.9182C37.1279 62.4302 38.0572 59.896 39.0064 57.3718C39.6494 55.6609 40.0688 53.8975 40.0887 52.057L40.0905 52.058ZM54.6725 54.9734C54.6725 54.7207 54.658 54.5695 54.6752 54.4228C54.7911 53.4364 54.917 52.451 55.0339 51.4647C55.1317 50.6369 55.3056 49.848 55.8128 49.1461C56.2149 48.59 56.0646 48.2241 55.4179 47.9669C55.2793 47.9116 55.1299 47.8536 54.9849 47.8509C53.9497 47.8292 52.91 47.7658 51.8793 47.8319C51.3132 47.8681 50.7372 48.0737 50.2109 48.3056C49.6802 48.5393 49.5652 49.0274 49.9374 49.4486C50.2635 49.8172 50.3115 50.232 50.3196 50.6532C50.3477 52.0987 50.3568 53.5442 50.335 54.9897C50.2952 57.7232 49.9791 60.4186 49.1757 63.0461C48.8524 64.1057 48.5553 65.1772 48.3252 66.2604C48.1676 67.004 48.3741 67.2631 49.1195 67.2658C52.0423 67.2748 54.9668 67.2721 57.8887 67.2142C59.4999 67.1825 60.7326 66.4352 61.4861 64.9689C61.6302 64.689 61.8186 64.4318 61.9571 64.1501C63.1789 61.6639 63.2577 59.166 61.8801 56.7278C60.7299 54.6909 58.3931 53.3622 55.6217 54.5831C55.3373 54.709 55.0465 54.8204 54.6725 54.9743V54.9734ZM81.6056 67.1625C83.6852 67.158 85.3635 66.8356 86.9412 66.0403C89.1068 64.949 89.1674 62.2173 87.836 60.8642C87.2147 60.232 86.4177 59.7665 85.6759 59.2611C85.1434 58.8988 84.5302 58.6479 84.0284 58.253C83.6535 57.9587 83.3129 57.5529 83.1091 57.1236C82.7976 56.467 83.216 55.7134 83.8971 55.5114C84.417 55.3575 84.7856 55.5504 84.8481 56.082C84.8988 56.5104 84.8445 56.9506 84.8463 57.3854C84.8499 58.0465 85.0691 58.3164 85.7131 58.4441C86.9285 58.6841 87.9348 58.2268 88.8043 57.4361C89.614 56.6988 89.6991 55.5169 88.9229 54.738C88.4619 54.277 87.8505 53.8993 87.2374 53.6692C85.6614 53.0769 84.0203 53.1376 82.3846 53.4283C81.3738 53.6076 80.3956 53.8839 79.5026 54.4137C77.8161 55.4154 76.9503 58.1009 79.0678 59.6714C79.9871 60.3534 80.8947 61.0508 81.7895 61.7636C82.2813 62.1548 82.7976 62.5416 83.1925 63.0216C83.7703 63.7226 83.5285 64.4771 82.6961 64.853C82.1735 65.0884 81.7533 64.8901 81.6627 64.3195C81.5966 63.9056 81.602 63.4799 81.5803 63.0587C81.5486 62.441 81.1936 62.0353 80.5804 61.9846C80.1927 61.9529 79.7915 61.9338 79.412 61.9972C78.4592 62.1566 77.6658 62.5841 77.3153 63.5542C76.8805 64.7569 77.5979 66.1572 78.9184 66.6807C79.883 67.0629 80.8956 67.1861 81.6038 67.1625H81.6056ZM71.9218 62.8187C70.4328 62.8722 69.5751 62.4673 68.9909 61.5833C68.644 61.0589 68.7717 60.7211 69.3867 60.6296C69.8314 60.5635 70.2915 60.5952 70.7353 60.5273C71.8004 60.3652 72.9108 60.3135 73.9116 59.9594C76.2565 59.1279 76.6686 56.2514 74.7114 54.7189C73.2287 53.5578 71.5214 53.3712 69.7499 53.8096C66.1904 54.69 63.6725 58.378 64.0819 62.0389C64.4542 65.3701 67.539 67.5393 70.8005 66.8211C72.7695 66.3872 74.2513 65.256 75.5211 63.7743C75.8037 63.4446 76.0699 63.0913 76.2837 62.7146C76.4811 62.3668 76.5518 61.9755 76.2148 61.6377C75.8752 61.2971 75.5075 61.3805 75.1398 61.5761C74.9813 61.6603 74.8336 61.7654 74.6824 61.8632C73.7522 62.4619 72.7442 62.8124 71.9227 62.8187H71.9218ZM43.448 67.6906L43.4543 67.7458C44.3926 67.6353 45.3454 67.5891 46.2666 67.3944C47.1342 67.2105 47.2194 66.9678 47.0174 66.1019C46.9567 65.8393 46.8906 65.5775 46.8245 65.3167C46.4069 63.6674 46.0591 62.0108 46.0501 60.2954C46.041 58.6742 46.2267 57.1173 47.1759 55.7342C47.4123 55.3892 47.3117 55.0613 46.9513 54.8584C46.7212 54.7289 46.4658 54.6057 46.2095 54.5668C44.9324 54.3766 43.6536 54.4273 42.3883 54.6637C42.0604 54.7253 41.7416 54.8992 41.4518 55.0767C41.1158 55.2832 41.0578 55.621 41.2851 55.9371C41.8974 56.7921 41.9291 57.7802 41.8784 58.7503C41.7425 61.3506 41.0814 63.8413 40.1503 66.2641C39.8206 67.1209 40.1023 67.6281 41.0152 67.6806C41.8231 67.7268 42.6365 67.6906 43.4471 67.6906H43.448ZM52.4064 25.0387C53.9733 25.0487 55.2059 23.8504 55.2168 22.308C55.2277 20.6995 54.0077 19.4215 52.4535 19.4134C50.9092 19.4061 49.6313 20.6641 49.6141 22.2093C49.5969 23.7553 50.8531 25.0279 52.4055 25.0378L52.4064 25.0387ZM44.6644 49.9377C43.9525 49.9694 43.2877 50.2239 42.7814 50.8298C41.9853 51.7826 42.3149 53.1484 43.4933 53.5388C43.9398 53.6864 44.4732 53.7009 44.9424 53.6239C46.0021 53.45 46.7892 52.432 46.6895 51.4874C46.5962 50.6061 45.753 49.9431 44.6634 49.9386L44.6644 49.9377ZM27.7819 45.1836C26.4505 43.7082 25.177 42.2962 23.8139 40.7855C23.3629 42.4194 23.1319 43.9301 23.0948 45.5314C24.6418 45.4164 26.1634 45.3041 27.7828 45.1836H27.7819ZM60.1991 23.2744C61.9254 21.9946 63.774 21.069 65.877 20.7094C63.5177 20.6116 61.2615 21.0147 59.0688 22.0191C59.4673 22.462 59.8251 22.8596 60.1982 23.2753L60.1991 23.2744Z" fill="#050505"/>
<path d="M69.523 35.8635C68.8609 37.02 68.2088 38.1821 67.5332 39.3314C66.6963 40.7552 65.6746 42.0006 64.1204 42.7016C63.1323 43.1481 62.1052 43.4153 61.0138 43.2821C59.3944 43.0847 58.313 42.1364 57.5667 40.7425C57.4761 40.5732 57.3856 40.4047 57.2669 40.1819C56.7343 41.5767 56.1013 42.8456 55.2064 43.9632C53.3035 46.3407 50.8545 47.4249 47.8131 46.9385C46.0786 46.6614 45.1639 45.4694 44.7146 43.8564C44.6358 43.5738 44.5797 43.2858 44.5 42.9425C43.856 44.1389 43.1387 45.2122 42.1614 46.0835C40.3455 47.7029 38.2334 48.3822 35.8251 47.9402C33.9475 47.5961 33.059 46.2538 32.6768 44.5203C32.2747 42.698 32.4305 40.863 32.7121 39.0407C33.1885 35.9613 34.1006 32.9951 35.086 30.1004C33.9176 29.9854 32.752 29.8713 31.5021 29.7481C31.2521 30.5098 30.9867 31.4092 30.6634 32.2868C30.0828 33.8591 29.5195 35.4414 28.8438 36.973C28.5486 37.6432 28.055 38.2563 27.5441 38.7934C26.7734 39.6031 25.8151 39.5524 25.0489 38.74C24.4294 38.0834 24.0716 37.3008 24.0626 36.3842C24.0599 36.0998 24.1296 35.8625 24.4575 35.7584C26.0035 35.2657 27.1284 34.2395 27.8503 32.8257C28.4471 31.6564 28.9054 30.4156 29.4217 29.2137C29.015 28.9873 28.6835 28.8424 28.3973 28.6359C27.4037 27.9185 27.0387 26.5002 27.5296 25.3572C28.0305 24.1915 29.3329 23.467 30.5393 23.6825C31.3898 23.8347 32.1216 24.6109 32.2792 25.6534C32.3661 26.2249 32.3326 26.819 32.3064 27.4005C32.2946 27.6613 32.329 27.8126 32.5826 27.9258C33.856 28.4946 35.1277 28.4919 36.4346 28.0218C38.0613 27.4367 39.6037 27.6849 41.0184 28.6558C41.4658 28.9628 41.5157 29.3876 41.3517 29.9428C40.6978 32.1573 40.0203 34.3654 39.4298 36.5971C39.1581 37.6242 39.0123 38.6911 39.1753 39.7725C39.3256 40.7706 39.831 41.1302 40.802 40.8911C42.021 40.5904 42.8389 39.7653 43.5191 38.7835C44.3804 37.5408 44.9646 36.175 45.3803 34.715C45.9926 32.5667 46.709 30.4491 47.3503 28.3089C47.622 27.4014 48.2143 26.9467 49.1191 26.8163C50.3971 26.6315 51.6116 26.8163 52.7311 27.4648C53.4774 27.8977 53.5616 28.2473 53.3189 29.0715C52.6568 31.3276 51.9848 33.582 51.3789 35.8544C51.1072 36.8715 50.9858 37.9357 51.2086 38.9863C51.3961 39.8703 51.8915 40.1457 52.7728 39.931C53.9366 39.6475 54.7572 38.8903 55.422 37.9475C55.767 37.4575 56.1003 36.9467 56.3458 36.4033C56.5052 36.0491 56.5296 35.6207 56.5586 35.2213C56.8276 31.4925 58.1382 28.2238 60.9106 25.6534C63.0046 23.7124 65.4944 22.7016 68.3918 22.8647C69.2975 22.9154 70.1932 23.0404 70.9667 23.6617C71.9395 21.2353 72.9058 18.8243 73.8876 16.3734C72.2555 15.8155 70.6334 15.2449 69.0004 14.7087C67.0721 14.0756 65.1158 13.5313 63.0933 13.2994C58.8836 12.8158 54.8813 13.3837 51.3417 15.8861C48.8084 17.6767 47.5033 20.1756 47.4254 23.2931C47.4046 24.1209 47.0704 24.5348 46.1801 24.5493C44.6159 24.5746 43.0834 24.3383 41.7222 23.495C40.5167 22.7478 39.9895 21.5305 39.6454 20.2299C38.5648 16.1434 39.9932 12.6419 43.7328 10.1811C46.0478 8.65765 48.6146 7.83527 51.3435 7.44944C53.5046 7.14421 55.6692 7.08171 57.8366 7.29999C60.2983 7.54816 62.703 8.10064 65.0171 8.96197C68.3039 10.1847 71.5581 11.4943 74.826 12.766C74.9908 12.8303 75.1611 12.8828 75.2399 12.91C76.1709 11.4427 77.0133 9.98362 77.9842 8.6169C79.456 6.54553 81.2339 4.77577 83.5262 3.60016C85.1701 2.75694 86.9145 2.34031 88.7594 2.62652C90.8879 2.9562 92.3452 4.22329 93.0054 6.2231C93.9963 9.22825 93.845 12.1927 92.0816 14.9198C91.0101 16.5772 89.3409 17.4431 87.5204 18.049C85.1112 18.8505 82.654 18.9629 80.166 18.5345C79.7684 18.4656 79.5556 18.5435 79.3817 18.9402C78.3202 21.3594 77.6137 23.8908 77.1554 26.4757C76.6437 29.3632 76.2126 32.2696 75.9056 35.1851C75.6782 37.3479 75.8105 39.5198 76.7597 41.5559C77.2995 42.7152 78.0829 43.6752 79.1027 44.4333C79.8336 44.9767 80.7212 45.051 81.588 45.1298C84.1693 45.3644 86.737 45.1271 89.3038 44.8825C91.1623 44.7059 93.019 44.4206 94.8802 44.3962C97.3139 44.3645 99.3563 45.3073 100.632 47.4883C102.234 50.2244 100.998 54.0402 98.1272 55.3716C97.1853 55.8082 96.2678 55.2385 96.2334 54.1896C96.218 53.7223 96.2642 53.2486 96.199 52.7894C95.9961 51.362 95.0288 50.6447 93.7327 50.3014C92.4203 49.9536 91.0744 49.9772 89.7358 50.084C87.1989 50.2851 84.6674 50.5759 82.1278 50.7162C79.9713 50.8349 77.8356 50.6266 75.7751 49.8685C72.7084 48.74 70.8136 46.5871 70.186 43.4044C69.8989 41.9507 69.8291 40.45 69.7313 38.9664C69.6643 37.9475 69.7186 36.9204 69.7186 35.897C69.6525 35.8861 69.5873 35.8752 69.5212 35.8644L69.523 35.8635ZM70.2494 27.8742C70.2095 27.8642 70.1697 27.8533 70.1307 27.8434C70.109 27.5282 70.1009 27.2112 70.0628 26.8978C69.9179 25.7168 69.2631 25.2512 68.121 25.5727C67.6228 25.7131 67.1247 25.9205 66.6845 26.1913C65.085 27.1786 64.096 28.6775 63.3723 30.3612C62.732 31.8511 62.3117 33.3936 62.5517 35.0474C62.7682 36.5346 63.7744 37.193 65.2254 36.8163C66.536 36.4766 67.4842 35.6696 68.0585 34.4904C68.6146 33.3492 69.0973 32.1627 69.5004 30.959C69.8346 29.9591 70.0057 28.9049 70.2494 27.8742ZM81.2076 14.9569C83.3442 15.1869 85.2607 14.9478 87.0612 14.0521C89.2069 12.9852 90.262 11.0469 89.9975 8.74732C89.8698 7.63963 89.0601 6.98209 87.9832 7.2384C87.3728 7.38332 86.7134 7.62424 86.2506 8.02456C85.4382 8.72739 84.662 9.51718 84.0497 10.3948C83.0417 11.8403 82.1758 13.3855 81.2085 14.9569H81.2076Z" fill="#FDFDFD"/>
<path d="M112.963 36.0674C112.288 36.8264 111.613 37.6777 110.843 38.4322C109.579 39.6703 108.058 40.4429 106.259 40.4873C104.55 40.5289 103.076 39.9583 102.408 37.7131C102.393 37.6605 102.381 37.6062 102.344 37.4595C102.157 37.8172 102.011 38.1043 101.857 38.3878C100.833 40.2699 99.5091 41.8504 97.4849 42.7189C96.1526 43.2914 94.7596 43.4861 93.334 43.2171C91.5561 42.8811 90.5997 41.6774 90.1966 40.0009C90.0118 39.231 89.9548 38.4304 89.8425 37.6596C89.5391 38.1134 89.2329 38.6206 88.8788 39.0925C87.676 40.6956 86.2169 41.979 84.2135 42.4445C83.4645 42.6184 82.6484 42.7208 81.8958 42.6175C79.7537 42.3222 78.7783 40.7726 78.3282 38.8624C77.6072 35.8029 78.1271 32.8548 79.3706 30.0163C80.385 27.7004 81.8487 25.7386 84.1139 24.5105C86.2233 23.3675 88.4459 23.1528 90.7382 23.9299C91.4882 24.1835 92.0642 24.6744 92.5696 25.3401C92.7163 24.9326 92.8549 24.5775 92.9717 24.2161C93.1266 23.7352 93.4481 23.3938 93.9055 23.2389C95.5059 22.6954 97.0239 22.9427 98.4268 23.8466C98.9485 24.1826 99.0146 24.5766 98.8099 25.178C97.9875 27.5926 97.1489 30.0082 96.7576 32.5369C96.619 33.4318 96.6172 34.3701 96.7123 35.2713C96.7947 36.0547 97.2548 36.2884 98.0383 36.177C99.1894 36.013 100.007 35.3166 100.689 34.4471C101.917 32.882 102.554 31.0606 103.062 29.1541C103.606 27.1153 104.306 25.1164 104.981 23.1148C105.26 22.2879 106.028 22.075 106.792 21.9863C107.986 21.8468 109.134 22.0461 110.186 22.6529C110.94 23.0885 111.034 23.4707 110.779 24.304C110.187 26.2368 109.572 28.166 109.083 30.1259C108.895 30.8749 108.943 31.7127 109.034 32.4934C109.123 33.266 109.682 33.5504 110.456 33.4146C112.249 33.1003 113.278 31.8767 114.104 30.3931C114.809 29.1269 114.985 27.6905 115.434 26.3428C115.77 25.3338 116.053 24.3067 116.369 23.2905C116.596 22.5605 117.201 22.2743 117.87 22.1538C119.135 21.9247 120.36 22.1122 121.508 22.6964C122.35 23.1248 122.5 23.5604 122.168 24.4552C120.575 28.7565 119.451 33.1863 118.539 37.6741C118.522 37.7602 118.523 37.8498 118.51 38.0038C118.813 37.9295 119.083 37.8752 119.346 37.7973C122.351 36.9142 125.155 35.6444 127.403 33.391C129.775 31.0135 130.788 28.127 130.503 24.7768C130.417 23.7669 130.273 22.7788 129.866 21.8405C129.499 20.9927 128.919 20.3814 128.005 20.1468C127.671 20.0616 127.575 19.8914 127.632 19.5599C127.73 18.9866 128.048 18.5708 128.5 18.2384C129.211 17.7158 130.03 17.465 130.89 17.3798C132.834 17.186 134.722 17.3146 136.344 18.5781C137.788 19.7021 138.458 21.2726 138.813 23.007C139.797 27.8046 138.019 31.5207 134.286 34.4444C131.466 36.6516 128.233 38.0518 124.83 39.0427C122.674 39.6712 120.459 40.1023 118.266 40.6014C118.001 40.6612 117.936 40.7825 117.888 41.0126C117.353 43.5739 116.654 46.0837 115.443 48.4213C114.392 50.451 113.047 52.228 110.917 53.2316C109.144 54.0666 107.299 54.3528 105.405 53.6464C103.402 52.8991 102.362 51.0814 102.527 48.9457C102.787 45.571 104.756 43.4499 107.567 41.9772C108.862 41.2997 110.255 40.7997 111.628 40.2907C112.045 40.1368 112.209 39.9484 112.282 39.5399C112.493 38.3579 112.742 37.1823 112.963 36.0683V36.0674ZM83.959 34.794C83.9798 35.0639 83.9852 35.3365 84.0242 35.6046C84.2488 37.1298 85.4317 37.8064 86.8645 37.2285C87.6162 36.9251 88.1696 36.3744 88.627 35.7268C89.7266 34.1708 90.337 32.402 90.8089 30.5806C91.0652 29.5888 91.2699 28.5871 91.086 27.5501C90.9357 26.6987 90.4638 26.2911 89.6133 26.2812C88.7466 26.2703 88.0265 26.6389 87.4206 27.1986C85.2079 29.241 84.2053 31.8468 83.9581 34.7949L83.959 34.794ZM111.938 42.3005C110.819 42.6247 109.712 43.189 109.012 43.7786C108.464 44.2405 108.109 44.8111 108.051 45.5466C107.981 46.4333 108.791 47.2194 109.607 47.0156C110.404 46.8164 111.074 46.4097 111.278 45.5547C111.527 44.5095 111.708 43.4489 111.938 42.3005Z" fill="#FDFDFD"/>
<path d="M33.6886 6.91204C35.4439 6.90117 36.7472 7.68461 37.7072 9.03503C40.1662 12.4958 39.1446 16.9093 34.9674 18.7171C33.6225 19.2986 32.2403 19.1183 30.86 18.7361C28.6646 18.1293 26.6376 17.1194 24.5662 16.211C23.5518 15.7663 22.494 15.4212 21.4551 15.0345C21.3446 14.9937 21.2269 14.9729 21.0874 14.9367C21.341 19.3067 20.4616 23.4857 19.2488 27.6184C20.7287 27.6366 22.292 26.8585 22.3545 24.7999C23.7502 24.6486 25.1006 25.5462 25.702 27.0243C26.6784 29.4199 25.4765 32.0284 22.9677 33.0092C21.5384 33.5681 20.0757 33.4911 18.6021 33.3145C18.2317 33.2701 17.864 33.2067 17.4745 33.1487C16.5199 35.6331 16.0616 38.1718 16.0806 40.8029C16.0897 42.0636 16.2446 43.2918 16.7336 44.4638C17.3079 45.8405 18.2942 46.642 19.8257 46.69C19.8982 46.6918 19.9689 46.719 20.0658 46.7407C20.15 48.1582 19.8692 49.4778 19.1057 50.6625C17.6095 52.9847 15.4584 54.2373 12.6978 54.058C10.1047 53.8895 8.23806 52.4005 6.94651 50.196C6.04171 48.6518 5.84789 46.9491 5.91672 45.1902C6.08699 40.8581 7.69735 36.9509 9.45262 33.0844C9.58123 32.8009 9.71709 32.5202 9.8765 32.1814C8.70722 32.2312 7.66565 32.5591 6.59238 33.0328C7.14939 30.8183 8.39566 29.2822 10.544 28.6917C11.5512 28.4146 12.158 27.9101 12.6208 27.008C14.3435 23.6496 15.8488 20.2079 16.8405 16.5588C17.0072 15.9438 17.0506 15.2953 17.1747 14.5101C16.5489 14.7193 16.0571 14.8379 15.6033 15.0426C14.0002 15.7663 12.8527 16.951 12.1408 18.5604C11.1717 20.7531 10.9797 23.012 11.5493 25.3714C10.6418 25.7201 9.68177 25.788 8.72715 25.6458C6.10601 25.2545 4.22666 23.8579 3.27838 21.3527C2.6951 19.8103 2.92877 18.2443 3.35808 16.6974C4.17413 13.7538 6.23553 12.2159 9.09577 11.5276C11.5285 10.9425 13.9866 10.9579 16.461 11.0466C19.8185 11.1662 23.157 11.7295 26.5253 11.5239C28.7334 11.389 30.7894 10.8048 32.4305 9.19534C33.0736 8.56496 33.4277 7.77971 33.6859 6.91113L33.6886 6.91204Z" fill="#FEFEFE"/>
<path d="M40.089 52.0565C40.0691 53.8969 39.6498 55.6613 39.0067 57.3713C38.0575 59.8955 37.1292 62.4288 36.0912 64.9177C35.2371 66.9664 33.7518 68.4291 31.5119 68.8883C30.7222 69.0504 29.869 68.9934 29.0547 68.92C28.5167 68.8711 28.0711 68.4816 27.88 67.9608C27.5105 66.951 27.1292 65.9357 26.8837 64.8923C26.2371 62.1453 25.6909 59.3747 25.0442 56.6277C24.6149 54.8045 24.1023 53.0003 23.164 51.3501C22.7021 50.5377 22.1333 49.8303 21.3408 49.3231C21.051 49.1374 20.8526 48.8992 20.9133 48.5469C20.974 48.1937 21.2747 48.0741 21.5826 48.037C22.6731 47.9047 23.7654 47.7734 24.8595 47.6765C25.9998 47.5751 27.1419 47.4963 28.2858 47.441C28.7948 47.4166 29.3111 47.441 29.8174 47.5017C30.397 47.5714 30.5329 47.8296 30.5075 48.4427C30.4541 49.7062 30.3952 50.9706 30.4142 52.2341C30.4224 52.7938 30.5537 53.3725 30.7366 53.9051C31.3824 55.7908 32.0653 57.6638 32.7546 59.5341C32.9511 60.0667 33.1839 60.5929 33.4665 61.0838C33.5815 61.2839 33.8568 61.4506 34.0878 61.4977C34.1956 61.5194 34.4311 61.2459 34.5026 61.0638C35.2607 59.1238 36.007 57.1792 36.7352 55.2274C36.9897 54.5463 36.6319 53.9857 36.3104 53.4106C35.9545 52.7748 35.5713 52.129 35.3648 51.4388C34.9763 50.1391 35.7941 49.0468 37.1101 48.7335C38.485 48.4065 39.9595 49.362 40.0881 51.2876C40.1053 51.543 40.0909 51.8002 40.0909 52.0574L40.089 52.0565Z" fill="#FDFDFD"/>
<path d="M54.674 54.9725C55.0481 54.8186 55.3388 54.7072 55.6232 54.5813C58.3938 53.3604 60.7305 54.689 61.8817 56.726C63.2592 59.1642 63.1805 61.6621 61.9587 64.1483C61.8201 64.43 61.6317 64.6872 61.4877 64.9671C60.7341 66.4334 59.5005 67.1797 57.8902 67.2123C54.9675 67.2703 52.0438 67.273 49.1211 67.264C48.3766 67.2612 48.1692 67.0031 48.3268 66.2586C48.5568 65.1754 48.8539 64.1039 49.1772 63.0442C49.9797 60.4168 50.2958 57.7214 50.3365 54.9879C50.3574 53.5424 50.3492 52.0969 50.3211 50.6514C50.313 50.2311 50.265 49.8154 49.9389 49.4468C49.5658 49.0247 49.6817 48.5374 50.2125 48.3038C50.7387 48.0719 51.3147 47.8663 51.8808 47.8301C52.9115 47.764 53.9503 47.8274 54.9865 47.8491C55.1323 47.8518 55.2808 47.9098 55.4194 47.965C56.0661 48.2213 56.2155 48.5882 55.8143 49.1443C55.3071 49.8462 55.1332 50.6351 55.0354 51.4629C54.9185 52.4492 54.7927 53.4346 54.6767 54.421C54.6595 54.5686 54.674 54.7189 54.674 54.9716V54.9725ZM54.3289 60.2565C54.4186 61.481 54.4947 62.5923 54.5852 63.7018C54.6251 64.1927 54.8135 64.612 55.3071 64.804C55.8061 64.9979 56.2835 64.8819 56.6331 64.5106C56.9347 64.19 57.1946 63.8059 57.3839 63.4074C57.8875 62.3514 58.103 61.2102 58.1882 60.0545C58.2552 59.1424 58.3077 58.2195 57.9835 57.3283C57.6112 56.3066 57.3712 56.1346 56.3007 56.1726C55.3343 56.207 54.7546 56.6318 54.5952 57.581C54.4421 58.4967 54.4059 59.4323 54.328 60.2565H54.3289Z" fill="#FDFDFD"/>
<path d="M81.6069 67.161C80.8995 67.1846 79.886 67.0614 78.9214 66.6792C77.6018 66.1557 76.8836 64.7563 77.3183 63.5527C77.6688 62.5826 78.4622 62.1551 79.415 61.9957C79.7954 61.9323 80.1967 61.9514 80.5834 61.9831C81.1966 62.0338 81.5516 62.4395 81.5833 63.0572C81.6051 63.4784 81.6005 63.9032 81.6657 64.318C81.7563 64.8886 82.1775 65.0878 82.6992 64.8514C83.5315 64.4756 83.7733 63.7211 83.1955 63.0201C82.8006 62.541 82.2834 62.1533 81.7925 61.7621C80.8977 61.0493 79.9893 60.351 79.0709 59.6699C76.9533 58.0994 77.8192 55.4139 79.5056 54.4122C80.3977 53.8824 81.3768 53.6061 82.3876 53.4268C84.0233 53.1361 85.6636 53.0763 87.2404 53.6677C87.8536 53.8978 88.4649 54.2754 88.9259 54.7364C89.703 55.5145 89.6179 56.6973 88.8073 57.4346C87.9378 58.2253 86.9325 58.6826 85.7161 58.4426C85.0712 58.3149 84.8529 58.045 84.8493 57.3838C84.8466 56.9491 84.9019 56.5089 84.8511 56.0805C84.7886 55.548 84.42 55.355 83.9001 55.5099C83.219 55.7119 82.8006 56.4655 83.1122 57.1221C83.3159 57.5505 83.6565 57.9563 84.0315 58.2515C84.5341 58.6464 85.1473 58.8973 85.6789 59.2596C86.4207 59.7641 87.2178 60.2305 87.8391 60.8627C89.1696 62.2149 89.1089 64.9475 86.9442 66.0388C85.3656 66.835 83.6873 67.1565 81.6087 67.161H81.6069Z" fill="#FDFDFC"/>
<path d="M71.9234 62.8169C72.7449 62.8096 73.753 62.46 74.6831 61.8613C74.8344 61.7635 74.982 61.6584 75.1405 61.5742C75.5082 61.3786 75.8759 61.2962 76.2156 61.6358C76.5525 61.9736 76.4819 62.364 76.2844 62.7127C76.0707 63.0895 75.8044 63.4427 75.5218 63.7724C74.252 65.2541 72.7703 66.3854 70.8013 66.8192C67.5398 67.5374 64.4549 65.3682 64.0827 62.037C63.6733 58.3761 66.1912 54.6881 69.7506 53.8077C71.5222 53.3694 73.2295 53.5559 74.7121 54.7171C76.6685 56.2495 76.2564 59.1261 73.9124 59.9575C72.9116 60.3126 71.8011 60.3633 70.736 60.5254C70.2913 60.5933 69.8321 60.5616 69.3874 60.6277C68.7724 60.7192 68.6456 61.058 68.9916 61.5815C69.5758 62.4654 70.4335 62.8703 71.9225 62.8169H71.9234ZM72.6154 57.3572C72.5538 56.5819 72.0013 56.1309 71.3592 56.4153C70.4534 56.8174 69.7524 57.4686 69.3277 58.378C69.1365 58.7855 69.2552 59.0165 69.7017 59.0826C70.6192 59.2185 71.4461 58.963 72.1037 58.3209C72.3518 58.0791 72.4496 57.6833 72.6154 57.3572Z" fill="#FDFCFC"/>
<path d="M43.4493 67.6883C42.6387 67.6883 41.8253 67.7254 41.0174 67.6783C40.1045 67.6258 39.8228 67.1186 40.1525 66.2618C41.0836 63.839 41.7447 61.3483 41.8806 58.748C41.9313 57.778 41.8996 56.7898 41.2873 55.9349C41.0609 55.6188 41.118 55.2809 41.454 55.0744C41.7429 54.8969 42.0626 54.723 42.3905 54.6614C43.6558 54.425 44.9346 54.3743 46.2117 54.5645C46.4689 54.6026 46.7234 54.7266 46.9535 54.8562C47.314 55.059 47.4145 55.3869 47.1781 55.732C46.2289 57.115 46.0432 58.6719 46.0523 60.2931C46.0614 62.0086 46.4091 63.6651 46.8267 65.3144C46.8928 65.5753 46.958 65.837 47.0196 66.0997C47.2216 66.9655 47.1364 67.2083 46.2688 67.3921C45.3476 67.5868 44.3957 67.633 43.4565 67.7435L43.4502 67.6883H43.4493Z" fill="#FDFDFD"/>
<path d="M52.4049 25.0376C50.8525 25.0276 49.5962 23.7551 49.6135 22.2091C49.6307 20.6639 50.9077 19.4059 52.4529 19.4131C54.0062 19.4204 55.2271 20.6992 55.2162 22.3078C55.2053 23.8502 53.9726 25.0485 52.4058 25.0385L52.4049 25.0376Z" fill="#FCFCFC"/>
<path d="M44.6651 49.936C45.7538 49.9405 46.597 50.6035 46.6912 51.4847C46.7917 52.4294 46.0046 53.4474 44.9441 53.6213C44.4749 53.6983 43.9414 53.6838 43.4949 53.5362C42.3166 53.1467 41.9869 51.78 42.783 50.8272C43.2884 50.2222 43.9541 49.9677 44.666 49.9351L44.6651 49.936Z" fill="#FAFAF9"/>
<path d="M72.5087 51.3931C72.5232 51.394 72.5377 51.3949 72.5522 51.3958C72.544 51.4004 72.5368 51.4049 72.5286 51.4094C72.5241 51.4004 72.5196 51.3904 72.5151 51.3813L72.5078 51.3931H72.5087Z" fill="#EFBBC9"/>
<path d="M70.2504 27.8742C70.0067 28.9049 69.8356 29.9591 69.5014 30.959C69.0983 32.1627 68.6156 33.3492 68.0595 34.4904C67.4843 35.6696 66.5361 36.4766 65.2264 36.8163C63.7754 37.1931 62.7692 36.5346 62.5527 35.0474C62.3127 33.3945 62.733 31.8512 63.3733 30.3613C64.097 28.6785 65.086 27.1786 66.6855 26.1914C67.1257 25.9196 67.6229 25.7131 68.122 25.5728C69.2641 25.2512 69.9189 25.7168 70.0638 26.8978C70.1028 27.2112 70.11 27.5282 70.1317 27.8434C70.1716 27.8533 70.2114 27.8642 70.2504 27.8742Z" fill="#060606"/>
<path d="M81.2079 14.9583C82.1752 13.3869 83.0411 11.8418 84.0492 10.3962C84.6614 9.51861 85.4385 8.72883 86.25 8.026C86.712 7.62567 87.3722 7.38475 87.9827 7.23984C89.0605 6.98352 89.8702 7.64107 89.997 8.74876C90.2614 11.0484 89.2063 12.9866 87.0607 14.0535C85.261 14.9493 83.3436 15.1875 81.207 14.9583H81.2079Z" fill="#070707"/>
<path d="M83.9609 34.7942C84.2082 31.8461 85.2108 29.2404 87.4235 27.198C88.0294 26.6383 88.7485 26.2696 89.6162 26.2805C90.4667 26.2914 90.9376 26.698 91.0889 27.5494C91.2728 28.5865 91.0681 29.5891 90.8117 30.5799C90.3399 32.4022 89.7294 34.1702 88.6299 35.7262C88.1725 36.3738 87.62 36.9244 86.8674 37.2279C85.4345 37.8057 84.2517 37.1282 84.0271 35.6039C83.9881 35.3367 83.9827 35.0641 83.9618 34.7933L83.9609 34.7942Z" fill="#050606"/>
<path d="M111.938 42.2993C111.709 43.4478 111.527 44.5083 111.278 45.5535C111.074 46.4085 110.404 46.8152 109.607 47.0145C108.791 47.2182 107.981 46.4321 108.051 45.5454C108.109 44.8099 108.464 44.2394 109.012 43.7774C109.712 43.1878 110.819 42.6236 111.938 42.2993Z" fill="#0B0B0B"/>
<path d="M54.3281 60.2551C54.406 59.4309 54.4413 58.4953 54.5953 57.5797C54.7538 56.6305 55.3344 56.2057 56.3008 56.1713C57.3713 56.1332 57.6122 56.3053 57.9836 57.327C58.3078 58.2182 58.2553 59.1411 58.1883 60.0532C58.1031 61.2088 57.8876 62.35 57.384 63.4061C57.1938 63.8046 56.9348 64.1886 56.6332 64.5093C56.2836 64.8806 55.8062 64.9965 55.3072 64.8027C54.8136 64.6116 54.6252 64.1923 54.5853 63.7005C54.4948 62.591 54.4196 61.4797 54.329 60.2551H54.3281Z" fill="#050606"/>
<path d="M72.6139 57.3573C72.4482 57.6833 72.3495 58.0782 72.1022 58.3209C71.4456 58.9631 70.6177 59.2185 69.7002 59.0826C69.2537 59.0165 69.1351 58.7856 69.3262 58.378C69.7519 57.4687 70.452 56.8175 71.3577 56.4153C71.9989 56.1309 72.5523 56.582 72.6139 57.3573Z" fill="#0D0E0E"/>
</svg>
