<svg width="88" height="63" viewBox="0 0 88 63" fill="none" xmlns="http://www.w3.org/2000/svg">
<path d="M57.4564 0.651822C57.8515 0.742843 58.2543 0.80675 58.6378 0.930693C59.8656 1.33157 60.8126 2.10234 61.4439 3.22363C63.3766 6.65528 65.2938 10.0927 67.2111 13.5321C68.0574 15.0504 66.9845 16.8495 65.2435 16.8534C64.4166 16.8553 63.5819 16.8108 62.7627 16.8999C60.5027 17.1458 58.7849 18.2884 57.6617 20.256C55.5005 24.0363 53.3799 27.8397 51.2341 31.6297C50.1632 33.5237 48.5442 34.6798 46.3868 34.9335C43.7221 35.2472 41.5957 34.2402 40.1064 32.0054C39.4054 30.9538 38.7934 29.8402 38.1621 28.7422C37.8135 28.136 37.8464 27.5125 38.2086 26.914C39.5138 24.7605 40.821 22.609 42.1263 20.4555C43.2011 18.6854 44.274 16.9173 45.3488 15.1473C47.756 11.1811 50.1613 7.21496 52.5723 3.25268C53.4593 1.79442 54.7278 0.895834 56.4494 0.688618C56.4765 0.684745 56.4997 0.661505 56.5249 0.647949C56.8348 0.647949 57.1446 0.647949 57.4545 0.647949L57.4564 0.651822Z" fill="#034EA1"/>
<path d="M0.457031 52.9712C0.515129 52.6652 0.571291 52.3592 0.635198 52.0532C1.22392 49.2452 3.4239 47.2078 6.25908 46.8321C7.18865 46.7101 8.11047 46.7043 9.02067 46.9445C10.417 47.3124 11.4492 48.1548 12.1657 49.3981C12.2083 49.4717 12.2529 49.5434 12.2974 49.615C12.3013 49.6208 12.311 49.6208 12.2664 49.6015C12.5898 49.1599 12.8668 48.6932 13.2289 48.3059C14.0694 47.4034 15.1558 46.9483 16.3623 46.8108C18.2311 46.5959 19.9586 46.9968 21.4904 48.118C22.9506 49.1871 23.7504 50.6608 23.9945 52.4212C24.1223 53.343 24.1416 54.2842 24.1494 55.2176C24.1707 57.5144 24.1552 59.8132 24.1552 62.11V62.2494H19.9741C19.9741 62.1545 19.9741 62.0712 19.9741 61.988C19.9741 59.1179 19.9741 56.2479 19.9741 53.3779C19.9741 51.8286 18.9322 50.7325 17.3829 50.6472C16.7535 50.6124 16.1454 50.6685 15.5993 51.0191C14.8944 51.4742 14.5748 52.1675 14.4935 52.9634C14.4122 53.7613 14.3657 54.5669 14.3599 55.3687C14.3405 57.6035 14.3483 59.8403 14.3463 62.0751C14.3463 62.1371 14.3463 62.1991 14.3463 62.2765H10.1884C10.1884 61.6839 10.1846 61.0991 10.1884 60.5123C10.1943 59.8403 10.2117 59.1663 10.2175 58.4943C10.231 57.0341 10.264 55.572 10.2369 54.1118C10.2272 53.556 10.1497 52.977 9.97154 52.4541C9.42542 50.8351 8.40871 50.5814 7.1964 50.6318C6.21841 50.6744 5.42635 51.0404 4.97318 51.9603C4.74273 52.425 4.65558 52.9286 4.64202 53.4418C4.60135 54.8555 4.56456 56.2692 4.54907 57.6829C4.53357 59.1218 4.54519 60.5607 4.54519 61.9996V62.2785H4.28375C3.09081 62.2785 1.8998 62.2785 0.706853 62.2785C0.623579 62.2785 0.540305 62.292 0.457031 62.2998C0.457031 59.1896 0.457031 56.0794 0.457031 52.9692L0.457031 52.9712Z" fill="#010101"/>
<path d="M35.3914 20.1009C34.8046 21.0731 34.2217 22.0452 33.633 23.0155C32.3645 25.0993 31.0941 27.185 29.8217 29.2668C28.0517 32.1601 25.4992 33.9418 22.178 34.6215C21.1651 34.8287 20.1368 34.8384 19.1046 34.8036C18.2157 34.7745 17.3248 34.7784 16.4359 34.7668C15.4154 34.7532 14.3928 34.7183 13.3722 34.7338C12.4446 34.7493 12.0224 33.8527 12.4562 33.1013C15.793 27.3147 19.1007 21.5107 22.4181 15.7126C22.4568 15.6448 22.4917 15.577 22.5266 15.5092C22.5343 15.4879 22.544 15.4685 22.5517 15.4472C22.6001 15.4337 22.6544 15.4259 22.6989 15.4027C23.1792 15.1548 23.6478 14.8856 24.1378 14.6571C25.445 14.051 26.8026 13.6385 28.2647 13.7488C28.7605 13.7856 29.264 13.8573 29.7385 13.9967C31.3826 14.4789 32.5814 15.5673 33.5787 16.9094C34.1926 17.7363 34.7058 18.6252 35.1241 19.5683C35.2055 19.7504 35.3023 19.9247 35.3914 20.1009Z" fill="#032C66"/>
<path d="M35.3943 20.1009C35.3053 19.9227 35.2065 19.7484 35.1271 19.5683C34.7088 18.6252 34.1956 17.7363 33.5817 16.9094C32.5863 15.5673 31.3856 14.4789 29.7414 13.9967C29.2669 13.8573 28.7634 13.7856 28.2677 13.7488C26.8055 13.6385 25.448 14.049 24.1408 14.6571C23.6508 14.8837 23.1821 15.1548 22.7019 15.4027C22.6573 15.4259 22.6031 15.4317 22.5547 15.4472C22.9517 14.7404 23.3448 14.0316 23.7476 13.3286C25.5874 10.11 27.4214 6.88941 29.2727 3.67659C30.2798 1.92784 31.8213 1.0738 33.8354 1.02732C35.1232 0.998272 36.3007 1.29457 37.3367 2.0847C37.9042 2.5185 38.3554 3.05107 38.704 3.67272C39.3237 4.77851 39.9512 5.87657 40.5612 6.98817C41.4191 8.55295 41.4152 10.1293 40.5012 11.6612C38.917 14.3143 37.3019 16.9481 35.7003 19.5896C35.5977 19.76 35.4989 19.9324 35.3963 20.1028L35.3943 20.1009Z" fill="#034EA1"/>
<path d="M42.4967 62.2183C41.2166 62.2183 39.9617 62.2183 38.7087 62.2183C38.5092 62.2183 38.3756 62.1215 38.3097 61.9278C38.12 61.3701 37.9263 60.8123 37.7249 60.2255C37.4712 60.4676 37.2291 60.6923 36.9967 60.9266C36.1117 61.8213 35.0369 62.2551 33.7839 62.3248C32.0565 62.4197 30.4336 62.135 28.9657 61.1629C27.2731 60.0416 26.268 58.4632 25.8012 56.5131C25.3016 54.4254 25.5204 52.4172 26.5139 50.5096C27.4609 48.6912 28.9947 47.5679 30.9371 47.0276C33.1177 46.4195 35.279 46.5299 37.326 47.5466C39.3788 48.5672 40.5698 50.2695 41.0132 52.5082C41.2359 53.6275 41.2572 54.7624 41.3037 55.8972C41.3793 57.7389 41.5826 59.5613 42.1694 61.3217C42.2682 61.6199 42.3844 61.9104 42.4986 62.2183H42.4967ZM33.4644 58.5155C34.0822 58.5175 34.6786 58.3974 35.246 58.1553C35.9548 57.8513 36.5416 57.3884 36.774 56.637C36.9619 56.0289 37.1091 55.3899 37.1342 54.7585C37.1633 54.0149 37.0413 53.2673 36.7663 52.5585C36.3557 51.5012 35.6276 50.8388 34.4869 50.6607C33.873 50.5638 33.2572 50.529 32.6394 50.6123C31.4077 50.7807 30.5169 51.4024 30.056 52.5798C29.5195 53.949 29.5621 55.3105 30.1296 56.6583C30.4297 57.3691 30.9468 57.8687 31.6595 58.1592C32.2366 58.3955 32.8408 58.5116 33.4644 58.5155Z" fill="#010101"/>
<path d="M76.2299 54.594C74.5179 53.4998 73.7278 51.906 73.5728 49.9597C73.4993 49.0282 73.4818 48.0928 73.4392 47.1594C73.4353 47.0761 73.4392 46.9909 73.4392 46.896H77.6242C77.6688 47.8837 77.6959 48.8636 77.7617 49.8396C77.7888 50.2444 77.8585 50.6549 77.9786 51.0423C78.2401 51.8847 78.8423 52.3766 79.7022 52.5392C80.2774 52.6477 80.8603 52.6245 81.4277 52.4812C82.4037 52.2352 82.8763 51.4993 83.1319 50.6085C83.2403 50.2289 83.2636 49.8164 83.2752 49.4194C83.2965 48.6699 83.281 47.9185 83.281 47.1691V46.9018H87.3518C87.3556 46.987 87.3653 47.0761 87.3634 47.1671C87.3576 48.2187 87.3885 49.2722 87.3363 50.3218C87.2646 51.7588 86.5984 52.9304 85.572 53.9123C85.3435 54.1311 85.1092 54.3442 84.8535 54.5824C85.1576 54.8845 85.4791 55.1633 85.7502 55.4829C86.0949 55.8857 86.4396 56.3001 86.7127 56.7513C87.2433 57.6325 87.4137 58.626 87.4447 59.6388C87.4718 60.5025 87.4505 61.3682 87.4505 62.2513H83.283C83.283 61.9627 83.2849 61.6703 83.283 61.3798C83.2752 60.4696 83.3488 59.5536 83.1532 58.6531C82.8918 57.4408 82.2023 56.7959 80.9784 56.6003C80.4981 56.5228 80.0217 56.519 79.555 56.6642C78.5305 56.9818 77.9399 57.7177 77.8159 58.7402C77.7036 59.664 77.7443 60.6052 77.721 61.5386C77.7152 61.7846 77.721 62.0305 77.721 62.2881H73.4392C73.4392 62.168 73.4353 62.0402 73.4392 61.9143C73.4799 60.9809 73.4857 60.0436 73.5709 59.114C73.7394 57.3052 74.4753 55.7927 76.0207 54.745C76.0904 54.6986 76.1563 54.6463 76.2241 54.5998L76.2299 54.594Z" fill="#010101"/>
<path d="M68.7274 34.3796C67.2963 34.3796 65.8632 34.3777 64.432 34.3796C63.4269 34.3796 62.6445 33.9691 62.1488 33.0937C61.6588 32.2261 61.7034 31.3489 62.2107 30.4948C63.6516 28.0625 65.0905 25.6301 66.5371 23.2016C67.366 21.8131 69.138 21.4916 70.3522 22.5102C70.573 22.6961 70.7686 22.9305 70.9158 23.1784C72.3856 25.6378 73.8497 28.0993 75.3002 30.5723C76.1891 32.0886 75.3351 33.9807 73.6231 34.3274C73.443 34.3642 73.2552 34.3738 73.0693 34.3738C71.6226 34.3777 70.174 34.3758 68.7274 34.3758V34.3796Z" fill="#044EA2"/>
<path d="M40.793 46.8821C42.0827 46.8821 43.3202 46.8782 44.5597 46.884C44.8017 46.884 44.8869 47.0874 44.9625 47.2752C45.2588 48.0285 45.5512 48.7819 45.8436 49.5372C46.8778 52.2116 47.91 54.886 48.9422 57.5605C48.9828 57.6651 49.0255 57.7677 49.0874 57.9168C49.2888 57.4017 49.4747 56.9311 49.6568 56.4586C50.8149 53.4452 51.973 50.4299 53.131 47.4146C53.162 47.3352 53.193 47.2558 53.2259 47.1784C53.3092 46.9847 53.4467 46.8685 53.6675 46.8666C54.75 46.8627 55.8345 46.8569 56.9171 46.853C57.0701 46.853 57.2231 46.853 57.4148 46.853C57.2657 47.2171 57.1321 47.5502 56.9946 47.8814C55.0425 52.6202 53.0904 57.3591 51.1441 62.0999C51.0802 62.2529 51.0105 62.3052 50.8439 62.3032C49.7362 62.2935 48.6304 62.2858 47.5227 62.2955C47.1973 62.2993 47.0269 62.1444 46.9146 61.8675C46.2309 60.1904 45.5473 58.5133 44.8598 56.8381C43.5507 53.6524 42.2377 50.4667 40.9285 47.281C40.8782 47.1571 40.8453 47.0234 40.7968 46.8763L40.793 46.8821Z" fill="#010101"/>
<path d="M61.0972 62.2707H57.0167C57.0167 62.1797 57.0167 62.0983 57.0167 62.017C57.0167 59.4491 57.0032 56.8811 57.0206 54.3113C57.038 51.7085 58.0528 49.5898 60.2005 48.0696C61.2792 47.3066 62.5128 46.9503 63.8123 46.7992C64.6547 46.7004 65.4932 46.7004 66.324 46.9057C66.4828 46.9444 66.5467 47.0025 66.5467 47.1826C66.5371 48.3427 66.5409 49.5027 66.5409 50.6647C66.5409 50.7324 66.5409 50.8002 66.5409 50.8486C65.9541 50.8138 65.3848 50.746 64.8154 50.7537C63.7929 50.7673 62.842 51.0365 62.0713 51.7511C61.5232 52.2585 61.2521 52.9092 61.2211 53.647C61.1824 54.5959 61.1649 55.5468 61.1533 56.4977C61.132 58.3762 61.1204 60.2547 61.1049 62.1351C61.1049 62.1739 61.101 62.2107 61.0972 62.2746V62.2707Z" fill="#020202"/>
<path d="M72.0296 62.2722H67.9453V46.9033H72.0296V62.2722Z" fill="#020202"/>
<path d="M69.9963 45.7533C68.3173 45.8133 67.3974 44.3609 67.4264 43.1582C67.4632 41.7097 68.5148 40.6465 69.9847 40.6445C71.4797 40.6445 72.5468 41.7039 72.5449 43.1931C72.5449 44.5778 71.5456 45.7978 69.9963 45.7513V45.7533Z" fill="#010101"/>
</svg>
