<svg width="247" height="46" viewBox="0 0 247 46" fill="none" xmlns="http://www.w3.org/2000/svg">
<path d="M21.4153 15.4014C19.3754 13.1693 16.8271 12.0532 13.7683 12.0532C10.323 12.0532 7.63623 13.4317 5.70794 16.1867V12.6319H0.789062V34.988H6.03863V31.3981C7.96691 33.8782 10.5442 35.1182 13.7683 35.1182C16.9924 35.1182 19.3754 34.0022 21.4153 31.7701C23.4531 29.538 24.4741 26.8099 24.4741 23.5857C24.4741 20.3616 23.4531 17.6335 21.4153 15.4014ZM17.1164 28.2566C15.8475 29.5256 14.2912 30.158 12.4456 30.158C10.6 30.158 9.04162 29.5318 7.7747 28.2773C6.50571 27.0248 5.87329 25.4747 5.87329 23.6271C5.87329 21.7794 6.50571 20.1838 7.7747 18.9149C9.04162 17.6479 10.5979 17.0134 12.4456 17.0134C14.2933 17.0134 15.8475 17.6479 17.1164 18.9149C18.3834 20.1838 19.0179 21.7401 19.0179 23.5857C19.0179 25.4313 18.3834 26.9897 17.1164 28.2566ZM0.789062 45.2867H6.03863V40.2603H0.789062V45.2867Z" fill="black"/>
<path d="M32.1222 8.58102C31.186 8.58102 30.3799 8.24414 29.7041 7.56831C29.0283 6.89248 28.6914 6.07405 28.6914 5.10887C28.6914 4.1437 29.0283 3.32526 29.7041 2.64943C30.3799 1.9736 31.186 1.63672 32.1222 1.63672C33.0585 1.63672 33.9058 1.9736 34.5817 2.64943C35.2575 3.32526 35.5944 4.1437 35.5944 5.10887C35.5944 6.07405 35.2575 6.89248 34.5817 7.56831C33.9058 8.24414 33.0874 8.58102 32.1222 8.58102ZM34.7677 34.5395H29.5181V12.6319H34.7677V34.5395Z" fill="black"/>
<path d="M52.9945 23.6688L60.0215 34.5399H54.1106L49.729 27.761L45.3888 34.5399H39.8086L46.9182 23.3795L39.9739 12.6323H45.8849L50.225 19.37L54.3172 12.6323H59.8561L52.9945 23.6688Z" fill="black"/>
<path d="M73.3339 12.0532C76.6676 12.0532 79.3833 13.1486 81.4769 15.3394C83.5706 17.5301 84.4944 20.2789 84.2464 23.5857C84.2195 24.274 84.1369 25.018 83.9984 25.8178H67.051C67.547 27.279 68.4708 28.4488 69.8204 29.3313C71.17 30.2138 72.7408 30.654 74.5326 30.654C76.3245 30.654 77.9635 30.3647 79.5342 29.786V34.3329C78.0461 34.8558 76.2832 35.1182 74.2433 35.1182C70.6327 35.1182 67.6441 34.0291 65.2736 31.8528C62.903 29.6765 61.7188 26.9194 61.7188 23.5857C61.7188 20.252 62.8286 17.5301 65.0462 15.3394C67.2639 13.1486 70.0271 12.0532 73.3339 12.0532ZM66.8856 21.643H79.2035C78.9824 20.0991 78.3293 18.8591 77.2401 17.9228C76.1509 16.9866 74.8075 16.5174 73.2099 16.5174C71.6123 16.5174 70.3227 16.9928 69.1797 17.9435C68.0368 18.8942 67.2721 20.128 66.8856 21.643Z" fill="black"/>
<path d="M93.7496 34.5398H88.5V1.47168H93.7496V34.5398Z" fill="black"/>
<path d="M119.421 21.9325L128.762 34.5397H122.562L119.131 29.9102C118.387 31.5078 117.203 32.7768 115.576 33.713C113.95 34.6492 112.09 35.1184 109.996 35.1184C107.02 35.1184 104.546 34.2917 102.577 32.6383C100.605 30.9849 99.6211 28.8623 99.6211 26.2727C99.6211 22.6083 101.508 19.6032 105.284 17.2616C101.977 15.1391 100.324 12.5494 100.324 9.49061C100.324 6.90096 101.206 4.81354 102.969 3.22833C104.732 1.64313 107.076 0.851562 109.996 0.851562C112.917 0.851562 115.219 1.64313 116.982 3.22833C118.745 4.81354 119.627 6.90096 119.627 9.49061C119.627 13.2666 116.912 16.4494 111.484 19.039C109.087 20.1964 107.398 21.2856 106.421 22.3045C105.443 23.3234 104.953 24.4539 104.953 25.694C104.953 26.934 105.462 28.0646 106.483 28.9181C107.502 29.7717 108.742 30.1995 110.203 30.1995C111.664 30.1995 112.813 29.78 113.82 28.9388C114.826 28.0976 115.328 27.0994 115.328 25.942C115.328 25.198 114.93 24.2741 114.13 23.1725L113.22 21.9325H119.421ZM113.117 6.88649C112.332 6.14246 111.292 5.77044 109.996 5.77044C108.7 5.77044 107.655 6.14246 106.855 6.88649C106.055 7.63053 105.656 8.6081 105.656 9.82129C105.656 11.5842 107.076 13.2521 109.914 14.8228C111.54 13.9961 112.677 13.2046 113.324 12.4461C113.971 11.6876 114.295 10.8133 114.295 9.82129C114.295 8.6081 113.902 7.63053 113.117 6.88649Z" fill="#E76F51"/>
<path d="M141.285 35.1182C137.869 35.1182 135.037 34.0229 132.791 31.8321C130.544 29.6413 129.422 26.8925 129.422 23.5857C129.422 20.2789 130.544 17.5301 132.791 15.3394C135.037 13.1486 137.869 12.0532 141.285 12.0532C142.36 12.0532 143.42 12.1917 144.468 12.4666V17.5508C143.724 17.1932 142.732 17.0134 141.492 17.0134C139.563 17.0134 137.951 17.6479 136.656 18.9149C135.36 20.1818 134.713 21.7525 134.713 23.6271C134.713 25.5016 135.36 27.0227 136.656 28.2773C137.951 29.5318 139.563 30.158 141.492 30.158C142.705 30.158 143.697 29.9927 144.468 29.662V34.7049C143.42 34.9798 142.36 35.1182 141.285 35.1182Z" fill="black"/>
<path d="M159.516 12.0532C162.905 12.0532 165.722 13.1486 167.969 15.3394C170.215 17.5301 171.337 20.2789 171.337 23.5857C171.337 26.8925 170.215 29.6413 167.969 31.8321C165.722 34.0229 162.905 35.1182 159.516 35.1182C156.126 35.1182 153.268 34.0229 151.021 31.8321C148.775 29.6413 147.652 26.8925 147.652 23.5857C147.652 20.2789 148.775 17.5301 151.021 15.3394C153.268 13.1486 156.099 12.0532 159.516 12.0532ZM164.186 18.9149C162.919 17.6479 161.361 17.0134 159.516 17.0134C157.67 17.0134 156.112 17.6479 154.845 18.9149C153.578 20.1818 152.943 21.7525 152.943 23.6271C152.943 25.5016 153.578 27.0227 154.845 28.2773C156.112 29.5318 157.67 30.158 159.516 30.158C161.361 30.158 162.919 29.5318 164.186 28.2773C165.453 27.0227 166.088 25.4727 166.088 23.6271C166.088 21.7814 165.453 20.1818 164.186 18.9149Z" fill="black"/>
<path d="M192.623 15.7323V1.47168H197.873V34.5398H192.954V30.985C191.025 33.74 188.351 35.1185 184.935 35.1185C181.849 35.1185 179.286 34.0024 177.246 31.7703C175.206 29.5382 174.188 26.8101 174.188 23.586C174.188 20.3618 175.206 17.6337 177.246 15.4016C179.286 13.1695 181.849 12.0535 184.935 12.0535C188.02 12.0535 190.695 13.2791 192.623 15.7323ZM186.216 30.1583C188.062 30.1583 189.62 29.532 190.887 28.2775C192.154 27.023 192.788 25.4729 192.788 23.6273C192.788 21.7817 192.154 20.182 190.887 18.9151C189.62 17.6482 188.062 17.0137 186.216 17.0137C184.37 17.0137 182.853 17.6482 181.586 18.9151C180.32 20.182 179.685 21.7404 179.685 23.586C179.685 25.4316 180.32 26.9899 181.586 28.2569C182.853 29.5238 184.397 30.1583 186.216 30.1583Z" fill="black"/>
<path d="M213.951 12.0532C217.285 12.0532 220.001 13.1486 222.094 15.3394C224.188 17.5301 225.112 20.2789 224.864 23.5857C224.837 24.274 224.754 25.018 224.616 25.8178H207.668C208.164 27.279 209.088 28.4488 210.438 29.3313C211.787 30.2138 213.358 30.654 215.15 30.654C216.942 30.654 218.581 30.3647 220.151 29.786V34.3329C218.663 34.8558 216.9 35.1182 214.86 35.1182C211.25 35.1182 208.261 34.0291 205.891 31.8528C203.52 29.6765 202.336 26.9194 202.336 23.5857C202.336 20.252 203.446 17.5301 205.663 15.3394C207.881 13.1486 210.644 12.0532 213.951 12.0532ZM207.503 21.643H219.821C219.6 20.0991 218.946 18.8591 217.857 17.9228C216.768 16.9866 215.425 16.5174 213.827 16.5174C212.23 16.5174 210.94 16.9928 209.797 17.9435C208.652 18.8942 207.889 20.128 207.503 21.643Z" fill="black"/>
<path d="M225.691 35.3252H246.359V40.2854H225.691V35.3252Z" fill="black"/>
</svg>
